<svg xmlns="http://www.w3.org/2000/svg" xmlns:xlink="http://www.w3.org/1999/xlink" viewBox="0 0 500 500"><defs><style>.cls-1{fill:none;}.cls-2{isolation:isolate;}.cls-3{fill:#45290e;}.cls-4,.cls-5{fill:#603913;}.cls-40,.cls-5{opacity:0.35;}.cls-12,.cls-13,.cls-14,.cls-16,.cls-18,.cls-20,.cls-24,.cls-34,.cls-35,.cls-36,.cls-37,.cls-5{mix-blend-mode:multiply;}.cls-6,.cls-8{fill:#754c29;}.cls-7{fill:#a36a39;}.cls-17,.cls-24,.cls-29,.cls-8{opacity:0.25;}.cls-17,.cls-21,.cls-23,.cls-25,.cls-27,.cls-29,.cls-31,.cls-33,.cls-8{mix-blend-mode:screen;}.cls-12,.cls-9{fill:#8e4922;}.cls-10{clip-path:url(#clip-path);}.cls-11{fill:#a85728;}.cls-12,.cls-33{opacity:0.37;}.cls-13{opacity:0.43;fill:url(#linear-gradient);}.cls-14{fill:#f4be78;}.cls-14,.cls-16,.cls-20{opacity:0.46;}.cls-15,.cls-16,.cls-17{fill:#efd2b2;}.cls-18{fill:#c2aa90;}.cls-18,.cls-34,.cls-35{opacity:0.39;}.cls-19,.cls-20,.cls-21{fill:#f76a8a;}.cls-21,.cls-25{opacity:0.24;}.cls-22,.cls-23,.cls-24{fill:#f79123;}.cls-23{opacity:0.18;}.cls-25{fill:#f7c3cf;}.cls-26,.cls-27,.cls-34{fill:#8fd0e2;}.cls-27{opacity:0.32;}.cls-28,.cls-29,.cls-35{fill:#7a4231;}.cls-30,.cls-31,.cls-36{fill:#f35375;}.cls-31{opacity:0.42;}.cls-32,.cls-33,.cls-37{fill:#fedc5e;}.cls-36{opacity:0.33;}.cls-37{opacity:0.41;}.cls-38,.cls-39,.cls-40{fill:#fff;}.cls-38{opacity:0.36;}.cls-39{opacity:0.54;}</style><clipPath id="clip-path"><path class="cls-1" d="M169.49,293.48S222.52,494,237.61,494s67.45-211.27,67.45-211.27L234.87,252Z"/></clipPath><linearGradient id="linear-gradient" x1="237.95" y1="489.52" x2="237.95" y2="270.72" gradientUnits="userSpaceOnUse"><stop offset="0" stop-color="#8e4922" stop-opacity="0"/><stop offset="1" stop-color="#6b371a"/></linearGradient></defs><g class="cls-2"><g id="OBJECTS"><path class="cls-3" d="M230.47,68.85c-.28-1.17-1.5-2.29-1.8-3.49s.26-2.72-.08-4.07c-1.68-6.7-3.48-13.73-5.22-20.51-.39-1.53-1.43-2.42-1.82-3.92-.19-.75.26-2.11.07-2.85-4.33-16.76-4.91-29.41-8-30.52-.15-.05-5.73-.76-5.73-.76l-.68.66c-9.84,1.2-39.86,8.86-42,11.16-.72.79.66,8.72,3.06,19.68.31,1.4,1.82,3.52,2.16,5,.65,2.85.15,5.16.88,8.25C173,54.44,174.86,61.84,176.7,69c1.06,4.11,2.12,8.14,3.14,12,.39,1.46,1.85,2.78,2.23,4.17s-.39,2.6-.06,3.79c2.07,7.46,3.87,13.49,5,16.78h0l-1.12,1.94,2.78,4.1c2.34.88,47-9.46,48.19-11.83.3-.6-1.34-10-3.43-18.89-.35-1.47-1.54-1.86-1.92-3.47-.24-1,.34-3.1.1-4.11Z"/><path class="cls-4" d="M231,96.59c-1.19,2.37-42.73,12-45.07,11.06-.69-.26-3.19-8.25-6.3-19.47-.33-1.19.41-2.53.06-3.8s-1.84-2.7-2.23-4.16c-1-3.83-2.08-7.86-3.14-12-1.84-7.16-3.68-14.56-5.33-21.51-.73-3.08-.24-5.39-.88-8.24-.34-1.49-1.85-3.61-2.16-5-2.4-11-3.78-18.9-3.06-19.68,2.51-2.74,44.58-13.07,45.07-11.07.19.78,3.83,14.54,8.16,31.3.19.73-.26,2.1-.07,2.84.39,1.5,1.43,2.39,1.82,3.93,1.75,6.77,3.54,13.81,5.22,20.5.34,1.35-.25,2.76.08,4.07s1.52,2.32,1.81,3.49c.38,1.57.76,3.11,1.13,4.6.24,1-.34,3.15-.1,4.12.38,1.6,1.57,2,1.92,3.46C230,89.88,231.26,96,231,96.59Z"/><path class="cls-5" d="M213.51,48.09c-.93,2-30.72,9-32.72,8s-11.35-37.57-9.67-39.4,30.47-8.54,32.72-8S214.43,46.09,213.51,48.09Z"/><path class="cls-5" d="M224.47,92.75c-1.57,2.24-30.74,8.88-32.72,8s-11.2-37-9.67-39.39,30.7-9,32.72-8S226.05,90.51,224.47,92.75Z"/><path class="cls-6" d="M210.76,48.76c-.92,2-30.72,9-32.72,8s-11.34-37.57-9.67-39.4,30.47-8.54,32.72-8S211.69,46.77,210.76,48.76Z"/><path class="cls-6" d="M221.73,93.43c-1.58,2.23-30.74,8.88-32.72,8s-11.2-37-9.68-39.4,30.71-9,32.72-8S223.3,91.19,221.73,93.43Z"/><path class="cls-7" d="M178.49,56.68c-2-.92-11.35-37.56-9.67-39.39.77-.84,7.32-2.73,14.37-4.46-7.22,1.76-14,3.71-14.82,4.57-1.67,1.83,7.68,38.47,9.67,39.4,1.07.49,10.05-1.26,18.34-3.31C188.22,55.49,179.53,57.17,178.49,56.68Z"/><path class="cls-7" d="M189.45,101.35c-2-.85-11.2-37-9.67-39.4.7-1.11,7.25-3.11,14.32-4.85-7.24,1.77-14,3.83-14.77,5-1.52,2.42,7.7,38.55,9.68,39.4,1.08.46,10.3-1.32,18.69-3.39C199.44,100.09,190.52,101.8,189.45,101.35Z"/><path class="cls-8" d="M175.21,17.85c-5,1.82-3.64,6.46-2.8,10.58.45,2.2.71,10.38,3.73,10.72,4,.45,4.27-10.34,6.69-12.56s10.66-5.83,4.56-10.18c-3.46-2.47-9.52-.12-12.85,1.6"/><path class="cls-8" d="M188.43,63.05c-5,1.81-3.64,6.46-2.79,10.58.44,2.19.7,10.38,3.73,10.72,3.94.44,4.27-10.34,6.68-12.57s10.66-5.82,4.57-10.17c-3.47-2.47-9.53-.12-12.86,1.6"/><path class="cls-3" d="M321.74,127c.7-1,.77-2.63,1.49-3.63s2.24-1.56,3.06-2.7c4-5.61,8.22-11.53,12.25-17.24.92-1.29.93-2.66,1.82-3.93.44-.63,1.78-1.16,2.22-1.78,10-14.15,19.24-22.78,18.11-25.83-.06-.15-3.13-4.86-3.13-4.86l-.94-.09c-7.28-6.73-32.54-24.66-35.66-24.79-1.07,0-6.22,6.15-13,15.07-.87,1.14-1.52,3.67-2.43,4.89-1.75,2.34-3.84,3.45-5.72,6-4.23,5.76-8.68,11.95-13,18-2.46,3.47-4.85,6.89-7.1,10.15-.86,1.24-.92,3.21-1.73,4.39s-2.24,1.39-2.94,2.41c-4.35,6.41-7.79,11.68-9.53,14.7l0,0-2.21.4L262,122.93c.84,2.35,37.62,29.72,40.2,29.08.65-.15,6.79-7.52,12.19-14.84.89-1.21.42-2.37,1.39-3.7.59-.81,2.59-1.75,3.2-2.59Z"/><path class="cls-4" d="M300.9,145.36c-2.58.63-36.76-24.85-37.6-27.21-.24-.69,4.24-7.76,10.78-17.4.69-1,2.19-1.33,2.93-2.41s.88-3.16,1.73-4.4c2.26-3.25,4.65-6.67,7.1-10.14,4.27-6,8.73-12.22,13-18,1.88-2.55,4-3.67,5.71-6,.92-1.22,1.56-3.76,2.43-4.89,6.8-8.92,12-15.11,13-15.07,3.72.14,38.81,25.54,37.6,27.21-.47.64-8.6,12.32-18.58,26.47-.44.62-1.77,1.16-2.21,1.79-.9,1.26-.91,2.63-1.82,3.92-4,5.72-8.24,11.64-12.26,17.25-.81,1.13-2.26,1.59-3.05,2.69s-.79,2.66-1.49,3.64l-2.78,3.84c-.61.84-2.62,1.78-3.2,2.58-1,1.34-.51,2.5-1.4,3.71C305.38,140.27,301.55,145.2,300.9,145.36Z"/><path class="cls-5" d="M326.59,100.67c-2.12.59-26.71-17.62-27.29-19.75S320.6,48,323.08,48.06s26.23,17.71,27.29,19.75S328.71,100.09,326.59,100.67Z"/><path class="cls-5" d="M299.63,137.93c-2.72.25-26.66-17.69-27.29-19.75s20.94-32.47,23.78-32.86,26.75,17.56,27.29,19.75S302.35,137.68,299.63,137.93Z"/><path class="cls-6" d="M324.3,99c-2.12.58-26.71-17.63-27.29-19.75s21.3-33,23.78-32.87S347,64.11,348.08,66.15,326.42,98.43,324.3,99Z"/><path class="cls-6" d="M297.34,136.27c-2.73.25-26.66-17.69-27.29-19.75S291,84.06,293.83,83.66s26.75,17.57,27.29,19.75S300.06,136,297.34,136.27Z"/><path class="cls-7" d="M297.38,79.53c-.59-2.12,21.31-32.95,23.78-32.86,1.15,0,6.82,3.82,12.7,8.07-6-4.36-11.9-8.29-13.07-8.34-2.48-.09-24.37,30.74-23.78,32.87.31,1.13,7.46,6.84,14.38,11.84C304.59,86.18,297.69,80.65,297.38,79.53Z"/><path class="cls-7" d="M270.42,116.79c-.63-2.06,20.95-32.47,23.78-32.86,1.31-.19,7.06,3.51,13,7.78-6-4.38-12-8.24-13.33-8-2.84.4-24.42,30.8-23.78,32.86.34,1.13,7.67,7,14.68,12.07C277.83,123.59,270.76,117.89,270.42,116.79Z"/><path class="cls-8" d="M324.87,51.9c-4.61-2.61-7.28,1.42-9.88,4.72-1.38,1.76-7.45,7.26-5.76,9.78,2.22,3.3,10.65-3.43,13.91-3,3.44.42,11.34,4.36,10.71-3.1-.36-4.24-6.07-7.34-9.53-8.77"/><path class="cls-8" d="M299,91.23c-4.61-2.62-7.28,1.41-9.88,4.72-1.38,1.75-7.46,7.25-5.76,9.78,2.22,3.29,10.65-3.44,13.91-3,3.43.42,11.34,4.36,10.71-3.1-.36-4.24-6.07-7.34-9.53-8.77"/><path class="cls-9" d="M169.49,293.48S222.52,494,237.61,494s68.81-216.69,68.81-216.69L234.87,252Z"/><g class="cls-10"><path class="cls-11" d="M377.63,285.06c-1.44-1.57-2.92-3.14-4.42-4.71-12.85,18.75-27.61,40.17-43.75,62.5-7.57-10.5-15.45-21.16-23.59-31.79l.63-.8c13.83-17.73,25.59-32.87,39.16-50.14Q343,258,340.29,255.9c-13.31,16.88-25.19,31.77-39,49.19l-3.13-4c-7.29-9.4-14.75-18.73-22.27-27.85,13.08-16.29,25.53-31.64,36.78-45.35q-2.85-2.09-5.71-4.12c-11,13.17-23.17,27.93-35.9,43.63-9.74-11.7-19.49-23-28.92-33.57,10.64-12,20.8-23.14,30-32.86q-2.81-1.69-5.58-3.33c-8.93,9.15-18.75,19.64-29,31-10.28-11.41-20.1-21.9-29-31q-2.79,1.63-5.59,3.33c9.21,9.72,19.37,20.83,30,32.86-9.43,10.58-19.18,21.87-28.92,33.57-12.73-15.7-24.86-30.46-35.9-43.63q-2.86,2-5.71,4.12c11.26,13.71,23.7,29.06,36.78,45.35-7.51,9.12-15,18.45-22.26,27.85-1.57,2-3.13,4-4.68,6-14.91-19.45-28.89-38-41.09-54.44-1.77,1.52-3.53,3.06-5.27,4.6,12.53,16.92,26.66,35.92,41.74,55.87-7.58,9.95-14.94,19.91-22,29.74-16.14-22.33-30.9-43.75-43.75-62.5-1.5,1.57-3,3.14-4.42,4.71,12.81,19.06,27.61,40.94,43.9,63.73-16.29,22.8-31.09,44.68-43.9,63.73,1.45,1.57,2.92,3.15,4.42,4.71,12.85-18.74,27.61-40.16,43.75-62.49,8.79,12.18,18,24.58,27.53,36.9-14.86,19.35-28.8,37.77-41,54.16,1.78,1.53,3.57,3.05,5.39,4.55,12.05-15.94,25.74-33.82,40.3-52.65,8.37,10.77,17,21.45,25.59,31.81-10.9,14-20.86,26.77-32,41,1.75,1.44,3.55,2.85,5.37,4.22,10.8-13.71,20.66-26.1,31.39-39.59,8.36,9.93,16.69,19.54,24.78,28.63-10.64,12-20.8,23.13-30,32.86q2.81,1.69,5.59,3.33c8.92-9.15,18.74-19.64,29-31.06,10.28,11.42,20.1,21.91,29,31.06q2.77-1.64,5.58-3.33c-9.21-9.73-19.37-20.83-30-32.86,7.6-8.54,15.42-17.53,23.27-26.83,12.39,15,24.17,29.11,34.76,41.63q2.87-2,5.73-4c-11-13.07-23.08-27.72-35.74-43.3,9.11-10.92,18.23-22.2,27.07-33.59,14.56,18.83,28.25,36.71,40.31,52.65q2.72-2.25,5.39-4.55c-12.18-16.39-26.12-34.81-41-54.16,9.54-12.32,18.74-24.72,27.53-36.9,16.14,22.33,30.9,43.75,43.75,62.49,1.5-1.56,3-3.14,4.42-4.71-12.8-19-27.6-40.93-43.9-63.73C350,326,364.83,304.12,377.63,285.06ZM292.51,305.5l4.18,5.36c-9.1,11.46-18.94,23.89-29,36.61-8.41-10.75-16.9-21.54-25.35-32.2,9.81-12.39,19.52-24.59,28.94-36.35C278.44,287.65,285.55,296.55,292.51,305.5Zm-29.63,48.1L255.51,363c-6.7,8.51-13.38,17-19.89,25.33-8.45-10.64-17-21.43-25.4-32.2,9-11.56,18.2-23.2,27.3-34.71C246,332.07,254.46,342.86,262.88,353.6ZM237.52,239c9.44,10.77,19.19,22.2,29,34-9.43,11.67-19.15,23.8-29,36.14C227.72,296.83,218,284.7,208.58,273,218.33,261.23,228.08,249.8,237.52,239Zm-55,66.47c7-8.95,14.07-17.85,21.21-26.58,9.42,11.76,19.13,24,28.94,36.35-9.1,11.48-18.24,23.1-27.27,34.67-9.75-12.48-19.37-24.89-28.67-37Q179.62,309.21,182.53,305.5Zm-32.64,43.29C157.05,339,164.46,329,172.09,319c9.22,12.15,18.77,24.6,28.5,37.1-7.8,10-15.49,19.93-23,29.66C168,373.41,158.77,361,149.89,348.79Zm32.64,43.29-.17-.22c7.51-9.69,15.22-19.6,23-29.6q2.87,3.66,5.74,7.31c6.53,8.33,13.12,16.64,19.69,24.85-7.08,9-13.91,17.79-20.28,26-.89,1.13-1.76,2.25-2.63,3.37C199.38,413.4,190.85,402.78,182.53,392.08Zm55,66.48c-8.12-9.27-16.48-19-24.87-29.1L216.2,425l19.46-24.55c8.5,10.57,16.93,20.93,25.14,30.92C252.94,440.76,245.13,449.88,237.52,458.56Zm55-66.48c-8.82,11.36-17.89,22.62-26.94,33.56-8.2-10.12-16.61-20.6-25.1-31.26,6.91-8.74,14-17.72,21.06-26.7q3.11-3.94,6.2-7.88c8.47,10.83,16.83,21.57,25,32.06Zm4.92-6.31c-8.1-10.52-16.43-21.28-24.88-32.11,10-12.73,19.76-25.22,28.78-36.78,8.2,10.69,16.16,21.38,23.83,31.91C316.27,361,307,373.41,297.43,385.77Z"/></g><path class="cls-12" d="M234.87,252l-7.56,4.8,58,20.48S248,427.8,226.8,477.93c4.43,10,8.19,16,10.81,16,15.1,0,68.81-216.69,68.81-216.69Z"/><path class="cls-13" d="M169.49,293.48S222.52,494,237.61,494s68.81-216.69,68.81-216.69L234.87,252Z"/><path class="cls-14" d="M235,258.19l-63.7,40.43s.9,3.43,2.51,9.37c4.45-2.95,7.48-7,10.57-6.59,6.29.9,8.52,13,21.1,12.12s23.34-20.2,35.46-17.5.9,22.44,11.67,27.38,13.47-29.63,23.35-29.63c7.74,0,11.34,14.61,21,19.64,4.78-18.45,7.78-30.59,7.78-30.59Z"/><path class="cls-15" d="M159.91,218a213.79,213.79,0,0,0-10.77,40.22c-1.81,11.52-24.06,20.74,4.67,38.25,18.18,11.08,24.24-6.73,30.52-5.84s8.52,13,21.1,12.12,23.34-20.2,35.46-17.51.9,22.45,11.67,27.39S266,283,275.91,283s13,23.79,30.52,21.1,24.89-28.66,17.26-38.55-5.48-24.69-9.44-47.34c0,0-6.72-49.07-76.72-55.93S159.91,218,159.91,218Z"/><path class="cls-15" d="M317.39,244.79c-.79-7.4-1.32-16.17-3.14-26.61,0,0-.1-.77-.42-2.13C315.33,227.9,315.52,237.3,317.39,244.79Z"/><path class="cls-16" d="M324.91,267.48c-.81,11.1-8.08,24.09-20.18,25.95-17.51,2.7-20.65-21.1-30.52-21.1S261.64,306.9,250.86,302a7.76,7.76,0,0,1-3.62-3.3c0,5.71.12,11.55,5.32,13.94C263.34,317.54,266,283,275.91,283s13,23.79,30.52,21.1C322.89,301.54,330.4,278.45,324.91,267.48Z"/><path class="cls-15" d="M239.19,274.58c-12.12-2.69-22.89,16.61-35.47,17.51S188.91,280.86,182.63,280s-12.34,16.92-30.52,5.84c-6.24-3.8-10.07-7.2-12.23-10.33-2,5.84-.11,12.41,13.93,21,18.18,11.08,24.24-6.73,30.52-5.84s8.52,13,21.1,12.12,23.34-20.2,35.46-17.51a6.94,6.94,0,0,1,4.65,3.1C245.48,282.11,245.55,276,239.19,274.58Z"/><path class="cls-17" d="M249.53,248.88c26.21-9,47.53-24.38,61.06-42.21-6.65-14.95-24.84-39.7-73.06-44.42-70-6.86-77.62,55.72-77.62,55.72a210.5,210.5,0,0,0-7.7,25C176.2,258.19,212.94,261.41,249.53,248.88Z"/><path class="cls-18" d="M316.05,231.17c-.43-4-1-8.34-1.8-13,0,0-6.72-49.07-76.72-55.93S159.91,218,159.91,218s-1.52,3.87-3.51,10.11a20.88,20.88,0,0,0,3.93,2c24.24,9.29,21.21-10.31,31.49-7.22s25.76,14.44,35.56,6.71,13.92-25.79,22.17-23.73,12.89,20.12,24.75,19.6,16.64-11.8,21.5-12C299.32,213.27,308.17,226.42,316.05,231.17Z"/><path class="cls-19" d="M233.66,84.92c-33.46-2.08-56.4,25.27-65.07,43.83s-8.68,46.41-8.68,46.41-24.24,33.52,0,42.81,21.2-10.32,31.49-7.22,25.76,14.44,35.55,6.7,13.93-25.78,22.18-23.72,12.89,20.11,24.75,19.6,16.64-11.8,21.5-12c4.59-.18,18.21,22.19,27,19.16s0-20.76-11.86-42.23C310.5,178.26,324.94,90.59,233.66,84.92Z"/><path class="cls-20" d="M324,205.89a4.94,4.94,0,0,1-3.38,4c-8.77,3-22.4-19.34-27-19.16-4.86.2-9.64,11.48-21.5,12s-16.5-17.54-24.75-19.6-12.38,16-22.18,23.72-25.27-3.61-35.55-6.7-7.25,16.5-31.49,7.22c-4.47-1.71-7.29-4.25-8.92-7.25-.79,7.35,1.42,14.36,10.62,17.89,24.24,9.28,21.2-10.32,31.49-7.22s25.76,14.44,35.55,6.7,13.93-25.78,22.18-23.72,12.89,20.11,24.75,19.6,16.64-11.8,21.5-12c4.59-.18,18.21,22.19,27,19.16C326.82,218.94,326.75,213.6,324,205.89Z"/><path class="cls-21" d="M260.59,172.11a136.4,136.4,0,0,0,48.49-28.41c-5.44-25.21-23-55.53-75.42-58.78-33.46-2.08-56.4,25.27-65.07,43.83-5.24,11.21-7.31,25.8-8.14,35.6C184.32,181.14,222.54,185.14,260.59,172.11Z"/><path class="cls-22" d="M271.15,93.86c.32-.49.63-1,.92-1.49,6.42-11.1,4.87-24-3.46-28.81s-20.28.28-26.7,11.37a29.49,29.49,0,0,0-3.67,10.35C251.42,86.55,262.25,89.6,271.15,93.86Z"/><path class="cls-23" d="M264.7,83c.17-.26.34-.53.5-.8,3.46-6,2.62-12.95-1.87-15.55s-10.95.15-14.41,6.14a15.81,15.81,0,0,0-2,5.58A52.4,52.4,0,0,1,264.7,83Z"/><path class="cls-24" d="M268.61,63.56a14.08,14.08,0,0,0-8.72-1.72,13.43,13.43,0,0,1,5.25,1.72c8.33,4.81,9.88,17.71,3.46,28.81l-.16.26c.92.4,1.83.81,2.71,1.23.32-.49.63-1,.92-1.49C278.49,81.27,276.94,68.37,268.61,63.56Z"/><path class="cls-21" d="M215.18,96.14c-15.82,3.77-46.92,40.08-38.41,52.19s39.58,18.95,73.62,0S268.91,83.34,215.18,96.14Z"/><path class="cls-25" d="M215.76,105.87c-6,1.44-17.92,15.31-14.67,19.93s15.11,7.24,28.11,0S236.27,101,215.76,105.87Z"/><path class="cls-26" d="M180.8,143.33c6.61-2.84,10.86-9.27,12.25-17.15a30,30,0,0,0-1.73-5.29c-5.06-11.78-16.34-18.24-25.17-14.43s-11.89,16.43-6.83,28.2a29.86,29.86,0,0,0,5.34,8.32C170.05,145.23,175.72,145.52,180.8,143.33Z"/><path class="cls-27" d="M173.82,133.66c3.7-1.59,6.07-5.19,6.85-9.59a17,17,0,0,0-1-3c-2.84-6.58-9.14-10.19-14.08-8.06s-6.64,9.18-3.81,15.76a16.64,16.64,0,0,0,3,4.65A11.42,11.42,0,0,0,173.82,133.66Z"/><path class="cls-28" d="M327.8,249.86c4.28,12.08.41,24.48-8.66,27.7s-19.89-4-24.18-16.06-.4-24.49,8.67-27.7S323.52,237.77,327.8,249.86Z"/><path class="cls-29" d="M313,253.19c1.58,7.23-.79,13.9-5.3,14.88s-9.43-4.09-11-11.32.79-13.9,5.29-14.88S311.38,246,313,253.19Z"/><path class="cls-30" d="M164.42,269.48c-12.81-.48-22.9-8.67-22.54-18.28s11.05-17,23.86-16.53,22.9,8.67,22.53,18.29S177.23,270,164.42,269.48Z"/><path class="cls-31" d="M159.72,261.62c-8.34-.32-14.91-5.65-14.67-11.91s7.19-11.08,15.53-10.77,14.91,5.65,14.67,11.91S168.06,261.93,159.72,261.62Z"/><path class="cls-32" d="M292.64,125.28c-8.33-4.82-20.29.28-26.7,11.37a30.52,30.52,0,0,0-1.9,3.91c-.1,8.36,3.2,15.7,9.57,19.39,5.18,3,11.44,3,17.47.62a29.84,29.84,0,0,0,5-6.48C302.52,143,301,130.09,292.64,125.28Z"/><path class="cls-33" d="M284.17,129.54c-4.38-2.54-10.68.15-14.06,6a16.21,16.21,0,0,0-1,2.05c-.05,4.41,1.69,8.28,5,10.22a10.46,10.46,0,0,0,9.2.33,15.75,15.75,0,0,0,2.65-3.42C289.38,138.88,288.56,132.08,284.17,129.54Z"/><path class="cls-34" d="M191.32,120.89c-4.4-10.24-13.49-16.45-21.6-15.41,7.06.87,14.23,6.68,18,15.41a31.7,31.7,0,0,1,1.73,5.29c-1.4,7.88-5.65,14.31-12.25,17.15a18.39,18.39,0,0,1-5.59,1.41,18.74,18.74,0,0,0,9.2-1.41c6.61-2.84,10.86-9.27,12.25-17.15A30,30,0,0,0,191.32,120.89Z"/><path class="cls-35" d="M327.8,249.86c-4-11.18-13.52-18.17-22.12-16.6,7.07,1.24,13.95,7.54,17.16,16.6,4.28,12.08.4,24.48-8.67,27.7a14.51,14.51,0,0,1-2.06.54,13.88,13.88,0,0,0,7-.54C328.21,274.34,332.08,261.94,327.8,249.86Z"/><path class="cls-36" d="M165.74,234.67a33.82,33.82,0,0,0-3.5.06c12.27.91,21.76,8.9,21.41,18.23-.33,8.72-9.16,15.62-20.36,16.46.37,0,.75.05,1.13.06,12.81.49,23.49-6.91,23.85-16.52S178.55,235.16,165.74,234.67Z"/><path class="cls-37" d="M292.64,125.28a14.22,14.22,0,0,0-9-1.68,13.36,13.36,0,0,1,4.89,1.68c8.33,4.81,9.88,17.71,3.47,28.81a29.84,29.84,0,0,1-5,6.48,24.36,24.36,0,0,1-6.42,1.6,22.37,22.37,0,0,0,10.56-1.6,29.84,29.84,0,0,0,5-6.48C302.52,143,301,130.09,292.64,125.28Z"/><path class="cls-38" d="M257.13,74.37a2.68,2.68,0,1,1-2.68-2.68A2.68,2.68,0,0,1,257.13,74.37Z"/><path class="cls-39" d="M278.71,136.27a2.69,2.69,0,1,1-2.68-2.68A2.68,2.68,0,0,1,278.71,136.27Z"/><path class="cls-39" d="M168,120.35a2.68,2.68,0,1,1-2.68-2.69A2.68,2.68,0,0,1,168,120.35Z"/><path class="cls-40" d="M154.89,247.47a2.68,2.68,0,1,1-2.68-2.68A2.69,2.69,0,0,1,154.89,247.47Z"/><path class="cls-40" d="M305.43,250.28a2.69,2.69,0,1,1-2.69-2.68A2.7,2.7,0,0,1,305.43,250.28Z"/></g></g></svg>